<?xml version="1.0" encoding="utf-8"?>
<svg viewBox="0 0 40 40" xmlns="http://www.w3.org/2000/svg">
  <path d="M 13.095 18.062 L 13.095 13.91 L 22.503 13.91 L 22.503 13.909 L 26.538 13.909 L 26.538 13.912 L 26.539 13.912 L 26.539 13.909 C 33.698 13.909 39.499 19.878 39.5 27.243 L 39.5 31.396 L 26.538 31.396 L 26.538 39.5 L 22.503 39.5 L 22.503 23.652 C 18.548 27.478 12.37 28.706 7.017 25.526 C -1.672 20.364 -1.672 7.458 7.017 2.296 C 8.998 1.12 11.245 0.5 13.533 0.5 L 13.533 4.679 C 6.626 4.679 2.31 12.373 5.763 18.528 C 9.217 24.683 17.851 24.683 21.305 18.528 C 21.39 18.375 21.472 18.219 21.548 18.062 L 13.095 18.062 Z M 26.538 27.243 L 35.512 27.243 C 35.511 22.145 31.495 18.012 26.539 18.012 L 26.539 14.813 C 26.539 14.819 26.538 14.824 26.538 14.829 L 26.538 27.243 Z" style="fill: rgb(216, 216, 216); stroke: rgb(0, 0, 0); paint-order: stroke; vector-effect: non-scaling-stroke; stroke-width: 6px;"/>
</svg>